<?xml version="1.0" standalone="no"?><svg xmlns="http://www.w3.org/2000/svg" viewBox="0 0 1440 320"><path fill="#ffffff" fill-opacity="1" d="M0,96L34.3,112C68.6,128,137,160,206,144C274.3,128,343,64,411,74.7C480,85,549,171,617,186.7C685.7,203,754,149,823,112C891.4,75,960,53,1029,74.7C1097.1,96,1166,160,1234,170.7C1302.9,181,1371,139,1406,117.3L1440,96L1440,320L1405.7,320C1371.4,320,1303,320,1234,320C1165.7,320,1097,320,1029,320C960,320,891,320,823,320C754.3,320,686,320,617,320C548.6,320,480,320,411,320C342.9,320,274,320,206,320C137.1,320,69,320,34,320L0,320Z"></path></svg>